<?xml version="1.0" standalone="no"?>
<!DOCTYPE svg PUBLIC "-//W3C//DTD SVG 20010904//EN"
 "http://www.w3.org/TR/2001/REC-SVG-20010904/DTD/svg10.dtd">
<svg version="1.0" xmlns="http://www.w3.org/2000/svg"
 width="462.000000pt" height="462.000000pt" viewBox="0 0 462.000000 462.000000"
 preserveAspectRatio="xMidYMid meet">

<g transform="translate(0.000000,462.000000) scale(0.100000,-0.100000)"
fill="#000000" stroke="none">
<path d="M2355 4300 c-670 -68 -1259 -342 -1718 -798 -125 -124 -317 -362
-292 -362 4 0 33 24 66 53 123 109 302 198 464 232 101 21 258 21 355 1 114
-24 260 -100 341 -179 75 -73 135 -155 123 -167 -5 -4 -50 -27 -101 -50 l-92
-43 -73 74 c-115 116 -242 169 -403 169 -258 -1 -499 -145 -656 -395 -69 -109
-109 -254 -109 -395 0 -342 235 -585 565 -584 165 1 306 52 439 158 102 82
217 227 240 304 l7 22 -215 0 c-199 0 -216 1 -215 18 0 9 6 51 12 92 l12 75
335 3 c184 1 340 0 347 -2 9 -4 8 -20 -3 -68 -68 -303 -296 -583 -589 -724
-149 -71 -226 -88 -395 -89 -170 0 -220 10 -345 70 -158 76 -255 172 -335 332
-47 94 -69 172 -77 271 -3 40 -8 71 -10 68 -10 -9 -33 -197 -33 -266 0 -109
35 -323 71 -436 171 -538 670 -913 1337 -1004 128 -17 475 -15 627 5 508 65
986 270 1395 599 135 108 370 347 370 376 0 6 -35 10 -80 10 l-79 0 -5 33 c-3
17 -19 295 -36 617 -17 321 -33 586 -35 588 -5 5 -32 -44 -331 -608 -153 -289
-283 -528 -288 -532 -18 -13 -123 -9 -134 5 -8 10 -84 317 -264 1060 -12 48
-23 86 -25 84 -4 -5 -337 -977 -384 -1124 l-40 -123 -109 0 c-61 0 -110 4
-110 9 0 19 579 1712 590 1726 5 6 43 9 88 7 l80 -3 117 -477 c65 -262 131
-534 148 -605 17 -70 35 -126 40 -124 4 1 151 271 326 599 174 329 320 601
324 604 7 7 158 6 165 -1 4 -3 73 -1193 88 -1508 4 -81 10 -150 14 -152 9 -5
80 93 145 200 280 461 338 1021 150 1458 -126 293 -401 568 -716 716 -176 83
-398 146 -599 171 -124 15 -381 20 -485 10z"/>
</g>
</svg>
