<svg width="17" height="18" viewBox="0 0 17 18" fill="none" xmlns="http://www.w3.org/2000/svg">
<path d="M10.1496 13.0065L6.67168 11.1097C6.21761 11.5951 5.62803 11.9327 4.97956 12.0787C4.33109 12.2246 3.65371 12.1721 3.03545 11.9281C2.4172 11.684 1.88666 11.2596 1.51278 10.71C1.1389 10.1604 0.938965 9.51109 0.938965 8.8464C0.938965 8.18171 1.1389 7.53238 1.51278 6.98281C1.88666 6.43324 2.4172 6.00883 3.03545 5.76474C3.65371 5.52065 4.33109 5.46817 4.97956 5.61412C5.62803 5.76007 6.21761 6.09769 6.67168 6.58312L10.1505 4.68635C9.95326 3.90442 10.048 3.07741 10.4169 2.36034C10.7859 1.64327 11.4037 1.08538 12.1545 0.791242C12.9054 0.497104 13.7378 0.486916 14.4956 0.762589C15.2534 1.03826 15.8847 1.58087 16.2711 2.28869C16.6575 2.99652 16.7724 3.82096 16.5944 4.60748C16.4164 5.394 15.9576 6.0886 15.3041 6.56106C14.6506 7.03353 13.8472 7.25143 13.0445 7.17391C12.2418 7.09639 11.495 6.72878 10.944 6.13999L7.46518 8.03675C7.5987 8.56798 7.5987 9.12399 7.46518 9.65522L10.944 11.552C11.4953 10.9635 12.2423 10.5962 13.045 10.5191C13.8477 10.442 14.651 10.6603 15.3042 11.133C15.9575 11.6058 16.4159 12.3006 16.5936 13.0872C16.7713 13.8738 16.6559 14.6981 16.2692 15.4058C15.8826 16.1134 15.2511 16.6557 14.4931 16.9311C13.7352 17.2064 12.9029 17.1959 12.1522 16.9014C11.4014 16.607 10.7839 16.0489 10.4152 15.3317C10.0466 14.6145 9.95214 13.7875 10.1496 13.0056V13.0065ZM4.25227 10.5026C4.69162 10.5026 5.11297 10.328 5.42364 10.0174C5.7343 9.70669 5.90883 9.28534 5.90883 8.84599C5.90883 8.40664 5.7343 7.98528 5.42364 7.67462C5.11297 7.36395 4.69162 7.18942 4.25227 7.18942C3.81292 7.18942 3.39156 7.36395 3.0809 7.67462C2.77023 7.98528 2.5957 8.40664 2.5957 8.84599C2.5957 9.28534 2.77023 9.70669 3.0809 10.0174C3.39156 10.328 3.81292 10.5026 4.25227 10.5026ZM13.3634 5.53286C13.8027 5.53286 14.2241 5.35833 14.5347 5.04766C14.8454 4.73699 15.0199 4.31564 15.0199 3.87629C15.0199 3.43694 14.8454 3.01559 14.5347 2.70492C14.2241 2.39426 13.8027 2.21972 13.3634 2.21972C12.924 2.21972 12.5027 2.39426 12.192 2.70492C11.8813 3.01559 11.7068 3.43694 11.7068 3.87629C11.7068 4.31564 11.8813 4.73699 12.192 5.04766C12.5027 5.35833 12.924 5.53286 13.3634 5.53286ZM13.3634 15.4722C13.8027 15.4722 14.2241 15.2977 14.5347 14.9871C14.8454 14.6764 15.0199 14.255 15.0199 13.8157C15.0199 13.3763 14.8454 12.955 14.5347 12.6443C14.2241 12.3336 13.8027 12.1591 13.3634 12.1591C12.924 12.1591 12.5027 12.3336 12.192 12.6443C11.8813 12.955 11.7068 13.3763 11.7068 13.8157C11.7068 14.255 11.8813 14.6764 12.192 14.9871C12.5027 15.2977 12.924 15.4722 13.3634 15.4722Z" fill="white"/>
</svg>
