<svg width="16" height="16" viewBox="0 0 16 16" fill="none" xmlns="http://www.w3.org/2000/svg">
<path d="M1.60004 2.39998H4.00002V1.59998C4.00002 1.17564 4.16859 0.768679 4.46864 0.468624C4.7687 0.168569 5.17566 0 5.6 0H10.4C10.8243 0 11.2313 0.168569 11.5313 0.468624C11.8314 0.768679 11.9999 1.17564 11.9999 1.59998V2.39998H14.3999C14.6121 2.39998 14.8156 2.48426 14.9656 2.63429C15.1156 2.78432 15.1999 2.9878 15.1999 3.19997C15.1999 3.41214 15.1156 3.61562 14.9656 3.76565C14.8156 3.91567 14.6121 3.99996 14.3999 3.99996H13.5999V14.3999C13.5999 14.8242 13.4313 15.2312 13.1313 15.5312C12.8312 15.8313 12.4243 15.9998 11.9999 15.9998H4.00002C3.57567 15.9998 3.16871 15.8313 2.86866 15.5312C2.5686 15.2312 2.40003 14.8242 2.40003 14.3999V3.99996H1.60004C1.38787 3.99996 1.18439 3.91567 1.03436 3.76565C0.884333 3.61562 0.800049 3.41214 0.800049 3.19997C0.800049 2.9878 0.884333 2.78432 1.03436 2.63429C1.18439 2.48426 1.38787 2.39998 1.60004 2.39998ZM4.00002 3.99996V14.3999H11.9999V3.99996H4.00002ZM5.6 2.39998H10.4V1.59998H5.6V2.39998ZM5.6 5.59994H7.19998V12.7999H5.6V5.59994ZM8.79997 5.59994H10.4V12.7999H8.79997V5.59994Z" fill="white"/>
</svg>
