<svg width="11" height="13" viewBox="0 0 11 13" fill="none" xmlns="http://www.w3.org/2000/svg">
<path d="M1.41603 12.6094C1.21217 12.6091 1.01192 12.5556 0.834976 12.4544C0.436538 12.2286 0.188843 11.7903 0.188843 11.3145V1.68561C0.188843 1.20848 0.436538 0.771523 0.834976 0.545742C1.01613 0.441629 1.22193 0.388089 1.43086 0.390717C1.63978 0.393346 1.84417 0.452046 2.02265 0.560684L10.252 5.4867C10.4236 5.59424 10.5649 5.74358 10.6629 5.92071C10.7609 6.09784 10.8124 6.29696 10.8124 6.49939C10.8124 6.70183 10.7609 6.90095 10.6629 7.07808C10.5649 7.25521 10.4236 7.40455 10.252 7.51209L2.02132 12.4394C1.83867 12.5499 1.62946 12.6086 1.41603 12.6094Z" fill="#3E14B5"/>
</svg>
